<?xml version="1.0" standalone="no"?><svg xmlns="http://www.w3.org/2000/svg" viewBox="0 0 1440 320"><path fill="#dc3545" fill-opacity="1" d="M0,32L20,58.7C40,85,80,139,120,144C160,149,200,107,240,117.3C280,128,320,192,360,202.7C400,213,440,171,480,160C520,149,560,171,600,149.3C640,128,680,64,720,80C760,96,800,192,840,229.3C880,267,920,245,960,240C1000,235,1040,245,1080,250.7C1120,256,1160,256,1200,240C1240,224,1280,192,1320,165.3C1360,139,1400,117,1420,106.7L1440,96L1440,320L1420,320C1400,320,1360,320,1320,320C1280,320,1240,320,1200,320C1160,320,1120,320,1080,320C1040,320,1000,320,960,320C920,320,880,320,840,320C800,320,760,320,720,320C680,320,640,320,600,320C560,320,520,320,480,320C440,320,400,320,360,320C320,320,280,320,240,320C200,320,160,320,120,320C80,320,40,320,20,320L0,320Z"></path></svg>